<?xml version="1.0" standalone="no"?>
<!DOCTYPE svg PUBLIC "-//W3C//DTD SVG 20010904//EN"
 "http://www.w3.org/TR/2001/REC-SVG-20010904/DTD/svg10.dtd">
<svg version="1.0" xmlns="http://www.w3.org/2000/svg"
 width="570.000000pt" height="420.000000pt" viewBox="0 0 570.000000 420.000000"
 preserveAspectRatio="xMidYMid meet">
<metadata>
Created by potrace 1.15, written by Peter Selinger 2001-2017
</metadata>
<g transform="translate(0.000000,420.000000) scale(0.100000,-0.100000)"
fill="#000000" stroke="none">
<path d="M2272 4185 c-60 -26 -94 -57 -118 -109 -102 -219 146 -422 336 -276
l35 27 55 -24 55 -25 -28 -20 c-31 -22 -57 -67 -57 -96 0 -17 -10 -20 -72 -26
-280 -25 -308 -35 -308 -107 0 -29 6 -42 28 -59 30 -24 33 -24 322 6 80 9 174
14 210 11 117 -8 308 -101 438 -213 69 -59 69 -59 -26 -43 -122 22 -304 -21
-460 -107 -128 -70 -242 -158 -411 -313 -100 -92 -229 -194 -273 -217 -24 -12
-38 -12 -105 2 -97 19 -162 48 -279 124 -129 84 -270 154 -347 173 -86 22
-245 22 -318 1 -129 -38 -231 -108 -336 -230 -104 -120 -219 -204 -438 -316
-85 -43 -143 -79 -135 -82 72 -23 176 -50 227 -60 l63 -11 -31 -45 c-35 -52
-119 -218 -119 -236 0 -17 -15 -21 -100 -23 -41 -1 -76 -4 -78 -5 -3 -4 67
-357 74 -368 3 -4 11 -8 18 -8 8 0 16 -35 24 -108 53 -480 385 -842 772 -842
221 0 407 93 569 284 l32 38 232 -26 c653 -74 606 -71 724 -52 59 10 115 22
124 27 10 5 88 6 181 3 186 -7 255 3 382 56 156 65 274 164 359 301 39 64 127
274 302 727 16 39 31 72 35 72 4 0 17 -22 29 -48 l23 -49 -30 -60 c-71 -139
-121 -323 -142 -515 -15 -142 -16 -138 24 -138 l33 0 6 -97 c10 -172 57 -353
132 -505 125 -252 335 -451 561 -531 463 -165 961 124 1153 666 214 607 -21
1322 -518 1571 -63 32 -124 53 -218 76 -40 10 -43 13 -43 45 l0 35 -113 0
c-115 0 -246 -24 -310 -57 -16 -8 -31 -12 -34 -10 -9 10 -183 309 -183 316 0
3 16 21 34 39 70 70 126 224 128 352 1 105 -15 156 -67 207 -41 41 -45 43
-101 42 l-59 -1 44 -9 c24 -5 45 -10 47 -12 2 -2 -25 -33 -60 -69 -59 -60
-106 -135 -143 -228 -13 -35 -13 -34 -8 25 3 33 8 71 11 85 5 18 4 22 -5 14
-15 -14 -49 -113 -60 -176 l-10 -53 4 70 c6 133 12 161 43 223 18 34 32 65 32
69 0 8 -143 -6 -224 -22 -38 -8 -71 -13 -73 -11 -12 12 245 76 307 76 37 0
110 49 110 74 0 34 -42 65 -116 87 -61 18 -74 25 -68 38 33 75 44 125 37 164
-5 22 -4 66 1 96 24 150 -62 287 -168 267 -42 -8 -75 -38 -103 -94 -13 -28
-18 -60 -18 -127 0 -111 27 -178 87 -211 36 -19 37 -21 22 -42 -11 -17 -25
-22 -57 -22 -54 0 -102 -30 -125 -76 l-17 -37 -79 6 c-78 7 -223 45 -281 75
-16 8 -46 28 -65 43 -39 31 -148 89 -167 89 -7 0 -16 12 -19 28 -15 58 -73
112 -123 112 -11 0 -41 20 -66 45 -39 40 -128 90 -222 126 -16 6 -23 17 -23
36 0 45 -44 127 -86 161 -62 52 -153 67 -222 37z m1312 -981 c152 -8 152 -12
1 -39 -55 -9 -105 -20 -111 -24 -6 -4 35 -90 108 -226 l118 -220 72 -7 c40 -4
118 -10 173 -14 l100 -7 -144 -28 c-79 -16 -145 -30 -147 -32 -2 -2 20 -48 49
-103 61 -113 102 -189 212 -394 43 -80 92 -172 110 -205 18 -33 97 -179 175
-325 79 -146 160 -298 182 -338 46 -85 51 -127 18 -154 -50 -41 -91 -18 -142
79 -20 37 -151 282 -292 543 -141 261 -256 485 -256 497 0 11 14 33 31 47 29
25 30 26 7 26 -13 0 -35 -6 -49 -14 -25 -13 -26 -12 -63 56 -21 38 -36 71 -34
73 2 3 22 -18 43 -45 21 -27 40 -48 41 -47 1 1 -39 84 -89 185 l-92 183 25 20
25 21 -34 -6 c-19 -4 -42 -13 -51 -21 -19 -18 -22 -15 -58 51 -30 56 -28 60 9
22 25 -26 14 1 -55 135 -47 92 -86 176 -86 186 0 10 12 24 28 31 22 11 24 14
9 18 -10 2 -36 -5 -58 -16 -44 -22 -51 -17 -52 35 -1 52 32 77 93 69 25 -3
108 -9 184 -12z m626 -184 c-20 -119 -99 -248 -146 -238 -23 4 -37 60 -29 114
6 45 14 50 96 68 21 4 31 18 48 58 11 29 24 69 28 88 8 34 8 34 11 7 2 -16 -2
-59 -8 -97z m-283 64 c9 -24 -14 -38 -122 -75 -97 -33 -99 -34 -61 -39 l40 -5
-53 -32 c-60 -38 -72 -40 -93 -15 -21 23 -68 118 -68 136 0 25 21 31 125 37
199 11 225 10 232 -7z m-774 -32 c74 -32 141 -105 162 -175 21 -71 17 -103 -5
-39 -23 69 -63 118 -126 153 -101 57 -212 58 -356 3 -116 -44 -226 -123 -492
-352 -104 -90 -105 -80 -2 32 126 136 200 204 290 267 201 143 376 179 529
111z m-1943 -205 c30 -8 73 -24 95 -36 28 -15 32 -20 15 -16 -186 43 -329 34
-467 -30 -64 -29 -69 -20 -10 16 120 75 239 96 367 66z m2950 -239 c13 -24 54
-94 91 -156 l67 -113 -36 -23 c-20 -12 -42 -26 -49 -29 -7 -5 -25 16 -49 55
-21 35 -44 73 -52 86 -27 42 -3 22 44 -38 26 -33 49 -59 51 -57 1 2 -28 68
-67 146 -38 78 -70 146 -70 151 0 7 12 13 41 19 3 0 16 -18 29 -41z m-3204
-58 c23 -12 82 -62 130 -113 189 -196 229 -232 299 -268 92 -48 153 -67 250
-77 l80 -9 -77 -2 c-120 -2 -235 31 -341 97 -22 13 -40 22 -42 20 -6 -6 44
-182 101 -358 20 -62 -40 72 -82 183 -47 124 -110 245 -121 233 -3 -2 2 -15
10 -28 28 -42 80 -258 63 -258 -2 0 -30 36 -61 79 -152 217 -331 310 -573 298
-89 -4 -101 -3 -91 10 21 24 126 81 181 98 65 19 180 19 243 0 69 -20 68 -11
-2 15 -39 15 -93 25 -163 29 l-105 7 65 32 c81 40 169 44 236 12z m2144 -32
c-123 -57 -235 -79 -425 -84 -185 -3 -176 3 45 31 161 20 214 30 330 59 123
31 128 30 50 -6z m-1800 -92 c41 -25 98 -54 125 -66 66 -28 199 -60 252 -60
94 0 223 40 323 101 32 19 30 17 -13 -24 -57 -55 -147 -101 -224 -118 -69 -14
-189 -7 -258 15 -69 21 -202 101 -269 161 -55 49 -77 82 -33 52 12 -9 56 -36
97 -61z m1278 -110 c26 -13 61 -39 77 -56 l30 -32 -32 16 c-47 24 -51 20 -16
-16 37 -39 63 -89 63 -119 0 -61 -73 -125 -195 -171 l-50 -19 45 6 c36 5 41 4
27 -5 -33 -21 -122 -24 -178 -6 -189 62 -246 220 -122 337 l36 34 -23 -40 -24
-40 46 42 c103 93 218 119 316 69z m488 -12 c68 -19 79 -34 17 -23 -60 12 -68
4 -12 -11 47 -13 119 -49 119 -61 0 -18 89 -41 160 -41 l75 0 -35 -15 c-19 -9
-67 -18 -106 -21 l-70 -4 -17 -49 c-19 -52 -22 -54 -61 -39 -14 5 -26 7 -26 5
0 -3 11 -10 25 -15 23 -9 33 -29 19 -43 -3 -3 -61 31 -129 76 -68 45 -123 83
-121 85 2 1 35 -13 72 -33 47 -25 60 -29 40 -13 -72 57 -122 103 -148 136 -47
59 -46 59 160 -55 34 -19 62 -32 62 -29 0 3 -44 36 -97 75 -155 110 -151 103
-60 97 43 -3 103 -13 133 -22z m-2224 -121 c92 -42 174 -138 231 -271 35 -81
34 -90 -2 -26 -61 112 -124 180 -202 220 -76 38 -99 33 -159 -33 -47 -53 -51
-55 -44 -28 4 17 11 40 15 53 29 78 -98 -54 -150 -155 l-21 -43 -90 0 -89 0
12 28 c30 67 59 112 102 159 82 93 157 125 275 120 48 -2 92 -11 122 -24z
m4001 -82 c158 -55 309 -182 400 -336 322 -545 124 -1309 -391 -1503 -89 -34
-265 -38 -352 -8 -119 40 -192 86 -285 181 -129 129 -207 274 -257 472 -19 76
-22 114 -22 278 1 171 3 199 26 285 14 52 33 113 42 135 15 35 18 38 28 22 7
-14 3 -39 -16 -100 -54 -173 -67 -334 -41 -512 58 -387 297 -680 606 -742 70
-14 95 -15 163 -5 97 14 171 41 242 88 70 47 92 75 27 35 -87 -53 -157 -74
-269 -79 -118 -5 -179 9 -289 66 -175 92 -325 313 -382 565 -24 105 -24 367 0
470 10 42 22 77 26 77 16 0 33 -57 23 -77 -5 -10 -17 -58 -27 -108 -33 -167
-9 -294 92 -490 105 -206 181 -292 313 -359 316 -158 659 59 773 487 31 117
30 375 -1 490 -139 507 -590 695 -912 380 l-69 -68 -17 31 c-17 32 -17 32 11
65 45 54 145 130 210 160 199 90 449 46 619 -110 l29 -26 -18 29 c-23 36 -132
118 -199 151 -217 105 -470 59 -664 -119 -34 -31 -45 -37 -55 -27 -30 31 187
180 303 209 25 6 54 14 65 16 46 11 211 -3 268 -23z m-1377 -19 c-27 -52 -477
-815 -522 -884 -79 -123 -196 -219 -334 -275 -71 -28 -194 -54 -253 -52 -28 1
-16 5 37 11 169 19 323 93 441 212 59 60 101 123 273 411 279 466 364 605 369
605 2 0 -3 -13 -11 -28z m-631 -88 c-18 -49 -57 -153 -86 -231 -51 -140 -52
-142 -36 -180 8 -21 13 -51 10 -66 -7 -38 -67 -84 -124 -96 -74 -16 -173 8
-155 37 3 6 50 14 104 18 84 7 92 9 57 15 -22 4 -64 8 -92 8 -29 1 -53 5 -53
10 0 9 71 21 121 21 16 0 29 5 29 10 0 6 -26 10 -57 11 -84 1 -112 15 -48 23
139 19 140 21 24 31 l-76 6 -21 52 c-39 99 -39 97 11 97 40 0 46 -3 57 -29 13
-32 7 -51 -14 -51 -8 0 -20 -7 -27 -17 -13 -15 -11 -16 26 -10 22 4 65 7 95 7
31 0 50 4 43 8 -10 6 9 44 68 138 44 71 86 136 94 144 7 8 27 44 45 79 17 34
33 61 35 59 3 -2 -11 -44 -30 -94z m816 -256 c-165 -427 -176 -452 -219 -518
-51 -78 -149 -169 -234 -217 -77 -44 -228 -94 -282 -92 -20 0 -7 6 38 15 153
33 271 97 377 204 95 96 112 129 299 597 80 199 146 358 148 353 2 -4 -55
-158 -127 -342z m-1664 140 c6 -48 23 -119 36 -157 14 -39 23 -72 21 -74 -6
-6 -123 12 -188 28 -32 9 -97 34 -145 57 -47 23 -90 44 -96 46 -5 3 13 -13 40
-35 63 -51 151 -100 229 -129 56 -21 58 -23 26 -23 -19 0 -66 8 -105 19 -38
10 -71 17 -73 15 -3 -2 27 -17 109 -55 69 -31 6 -15 -146 36 -115 38 -134 48
-165 84 -20 22 -44 55 -54 73 -17 31 -16 30 21 -8 61 -66 76 -72 39 -17 -35
53 -76 149 -76 181 0 16 12 17 169 13 111 -3 175 -1 187 6 15 9 6 12 -46 13
-60 2 -62 2 -25 9 22 4 83 7 134 6 l95 -1 13 -87z m-1027 -74 c119 -20 281
-71 430 -136 137 -60 153 -68 147 -74 -2 -2 -55 15 -118 39 -252 97 -452 154
-622 177 -45 7 -84 14 -87 17 -8 9 142 -6 250 -23z m2208 -2 c-310 -428 -361
-487 -492 -561 -176 -100 -343 -135 -641 -135 -245 0 -340 14 -600 90 -494
144 -553 154 -886 154 -179 0 -270 3 -263 10 6 6 122 11 289 12 l280 2 160
-37 c88 -21 205 -51 260 -68 373 -115 513 -141 750 -141 187 0 315 17 444 59
79 26 221 91 221 102 0 4 -38 -12 -85 -35 -159 -78 -352 -110 -600 -101 -214
8 -412 52 -710 157 -70 25 -243 72 -370 101 -77 18 -130 22 -369 24 -294 4
-295 4 -296 51 0 20 4 20 183 17 386 -7 505 -29 927 -169 392 -131 612 -168
865 -144 347 32 492 107 693 360 94 118 297 331 240 252z m-2313 -35 c134 -24
359 -90 518 -153 348 -137 394 -152 572 -179 231 -36 355 5 355 118 0 47 -35
94 -95 126 -46 25 -55 41 -46 75 1 3 18 0 39 -6 56 -15 97 -52 127 -113 22
-45 27 -65 23 -106 -6 -61 -28 -93 -87 -126 -125 -70 -400 -70 -676 -1 -44 11
-156 43 -250 73 -337 106 -496 130 -927 141 -140 3 -245 10 -242 15 3 5 154 9
336 9 182 0 329 2 327 5 -8 7 -291 33 -489 45 -102 6 -188 14 -191 18 -4 4
-10 24 -13 46 l-7 38 318 -5 c226 -3 344 -9 408 -20z m3800 -106 c76 -35 157
-144 193 -261 21 -67 30 -187 21 -267 -20 -162 -88 -283 -198 -354 -25 -16
-40 -29 -35 -29 16 0 103 58 131 88 66 69 112 165 137 282 13 58 14 61 15 25
2 -102 -51 -250 -121 -338 -44 -55 -137 -113 -205 -127 -178 -37 -358 110
-418 341 -25 92 -22 319 3 319 4 0 20 -24 36 -53 25 -43 30 -65 32 -127 5
-139 69 -251 170 -301 93 -45 215 -4 281 95 44 65 58 116 58 216 0 71 -5 94
-26 140 -55 117 -127 169 -234 170 l-61 0 -37 69 c-20 37 -37 71 -37 74 0 11
53 38 102 52 62 17 135 12 193 -14z m-3689 -147 c45 -7 135 -30 199 -49 122
-37 429 -154 422 -161 -2 -2 -107 30 -233 71 -208 69 -428 127 -574 154 -52 9
-51 10 25 5 44 -3 116 -12 161 -20z m4551 -179 c23 -145 14 -376 -20 -506
-113 -431 -414 -709 -768 -709 -93 0 -231 30 -278 61 -13 9 -12 9 4 4 139 -45
299 -54 415 -22 147 40 290 135 386 258 146 184 222 386 246 646 12 128 6 213
-27 428 -3 19 1 14 10 -15 9 -25 23 -90 32 -145z m-4797 -93 c0 -11 -39 -46
-67 -61 -34 -18 -84 -13 -140 14 -60 27 -66 21 -25 -27 16 -18 45 -61 66 -95
34 -58 107 -133 129 -133 5 0 6 10 3 23 -21 78 -21 75 5 42 37 -45 82 -84 105
-91 78 -21 241 102 301 226 9 19 18 30 20 23 9 -26 -71 -158 -131 -218 -69
-69 -112 -92 -191 -105 -196 -32 -382 100 -470 333 l-25 66 88 4 c192 7 332 7
332 -1z m440 -245 c-27 -72 -97 -168 -152 -207 -82 -60 -124 -73 -233 -74 -93
-1 -104 1 -165 31 -63 31 -99 58 -130 98 -8 10 7 3 33 -18 172 -129 392 -106
545 57 31 34 71 87 87 118 16 31 31 55 33 54 1 -2 -7 -29 -18 -59z"/>
<path d="M3860 2157 c0 -33 444 -863 482 -902 34 -35 -211 446 -357 700 -102
178 -125 215 -125 202z"/>
<path d="M2331 2240 c-82 -83 -60 -228 42 -279 44 -21 51 -22 92 -11 52 14 97
59 115 115 16 49 8 65 -34 65 -31 0 -34 -3 -40 -35 -9 -46 -43 -84 -83 -91
-26 -5 -37 -1 -67 27 -58 53 -62 147 -10 209 33 39 24 39 -15 0z"/>
<path d="M1180 1566 c0 -8 374 -127 475 -152 287 -68 522 -61 608 20 18 17 26
26 18 20 -122 -88 -380 -77 -766 31 -267 74 -335 91 -335 81z"/>
</g>
</svg>
