<?xml version="1.0" standalone="no"?>
<!DOCTYPE svg PUBLIC "-//W3C//DTD SVG 20010904//EN"
 "http://www.w3.org/TR/2001/REC-SVG-20010904/DTD/svg10.dtd">
<svg version="1.0" xmlns="http://www.w3.org/2000/svg"
 width="700.000000pt" height="490.000000pt" viewBox="0 0 700.000000 490.000000"
 preserveAspectRatio="xMidYMid meet">
<metadata>
Created by potrace 1.15, written by Peter Selinger 2001-2017
</metadata>
<g transform="translate(0.000000,490.000000) scale(0.100000,-0.100000)"
fill="#000000" stroke="none">
<path d="M4050 3764 c-47 -14 -101 -26 -120 -29 -19 -2 -53 -8 -75 -14 -22 -5
-94 -19 -159 -31 l-120 -20 -50 26 c-38 20 -59 25 -90 21 -61 -7 -146 -42
-189 -78 -37 -31 -38 -33 -36 -92 3 -58 2 -61 -34 -90 -21 -16 -47 -29 -60
-28 -87 5 -156 3 -172 -6 -13 -8 0 -9 51 -6 42 2 75 0 84 -7 10 -8 11 -13 3
-16 -6 -3 -35 -23 -65 -44 -29 -22 -74 -51 -100 -65 -45 -24 -62 -45 -37 -45
5 0 7 5 3 12 -5 8 -2 9 10 5 11 -4 15 -3 10 4 -4 7 1 9 17 5 13 -3 18 -3 11 0
-7 3 22 26 69 55 44 27 85 47 90 43 5 -3 9 0 9 6 0 16 102 100 121 100 3 0 11
-11 17 -25 10 -22 9 -26 -16 -39 -15 -9 -22 -15 -17 -16 6 0 20 7 32 15 12 8
24 11 27 6 3 -5 -17 -19 -46 -31 -37 -16 -53 -19 -58 -10 -5 8 -35 -4 -99 -38
-83 -45 -89 -50 -69 -59 19 -8 33 -5 74 19 29 16 62 31 73 33 12 2 33 13 48
24 26 21 54 27 66 14 9 -8 -64 -72 -84 -73 -16 0 -47 -28 -48 -42 -1 -5 -1
-33 -1 -63 l0 -55 -32 6 c-18 3 -51 7 -73 9 -22 1 -40 3 -40 4 0 1 -20 3 -44
5 -33 1 -48 8 -62 26 -11 14 -26 34 -34 45 -8 10 -15 14 -15 6 0 -6 -4 -10
-10 -6 -5 3 -7 11 -4 18 2 7 -4 21 -15 31 -19 17 -19 17 -14 -3 4 -17 1 -21
-19 -21 -23 0 -98 53 -98 70 0 8 37 22 94 35 24 5 28 3 22 -11 -6 -15 -4 -15
10 -3 9 8 40 19 68 26 l51 12 -65 -4 c-85 -5 -166 -23 -180 -40 -9 -11 -8 -31
4 -85 9 -39 14 -75 11 -80 -3 -4 13 -21 34 -37 l40 -29 -38 -73 c-31 -61 -45
-77 -84 -99 -39 -21 -49 -33 -58 -66 -6 -23 -15 -49 -20 -58 -5 -10 -9 -23 -9
-30 0 -16 99 -74 119 -70 8 2 10 -1 5 -9 -5 -8 -3 -10 5 -5 8 5 12 3 10 -5 -1
-8 -1 -21 0 -29 1 -13 3 -13 10 -1 5 8 6 22 2 30 -5 9 -7 21 -5 26 3 6 -25 25
-61 43 -63 31 -64 32 -59 64 11 59 28 80 93 114 65 35 91 53 59 41 -24 -8 -23
3 5 55 38 72 37 71 52 51 11 -15 29 -18 117 -19 l103 -2 -102 7 c-102 6 -150
20 -77 22 l39 1 -46 8 c-42 7 -105 37 -96 46 2 2 21 -5 42 -16 22 -11 51 -20
65 -19 18 1 13 4 -16 10 -32 8 -45 16 -54 39 -7 16 -27 45 -46 64 -43 45 -44
64 -1 37 18 -11 45 -22 61 -25 16 -3 46 -21 65 -40 55 -52 90 -65 185 -69 94
-4 111 -11 82 -33 -12 -9 -15 -14 -7 -14 8 0 20 8 28 18 8 9 12 11 8 5 -3 -7
-1 -13 4 -13 6 0 11 -15 11 -32 0 -18 11 -80 25 -138 14 -58 27 -116 31 -129
4 -17 1 -22 -9 -18 -19 7 -41 -8 -33 -22 4 -6 15 -11 24 -11 14 0 15 2 2 10
-8 5 -12 11 -9 14 28 28 56 -107 43 -210 l-8 -69 -7 60 -6 60 -2 -65 c-1 -36
-6 -85 -11 -110 -5 -27 -5 -47 1 -51 5 -3 8 -22 7 -42 -2 -30 -5 -34 -14 -22
-6 8 -13 12 -16 10 -3 -3 -44 13 -93 35 -48 22 -92 40 -98 40 -7 0 39 -23 101
-52 84 -38 112 -56 112 -70 0 -21 -4 -22 -33 -7 -19 9 -18 7 3 -10 50 -40 12
-29 -72 22 -53 32 -88 60 -91 72 -4 19 -4 19 -6 -1 -1 -16 21 -34 95 -80 87
-54 94 -61 89 -84 -4 -14 -8 -27 -10 -29 -2 -2 -50 29 -107 69 -57 40 -114 80
-128 90 -25 17 -37 57 -16 57 33 -1 46 4 46 17 0 8 10 16 22 18 12 2 23 10 25
18 3 11 2 12 -4 3 -11 -16 -188 -2 -250 20 -24 8 -43 11 -43 6 0 -14 70 -30
158 -36 45 -3 82 -10 82 -15 0 -8 -47 -5 -140 8 -64 9 -134 36 -119 45 10 6
11 9 2 9 -7 0 -13 9 -13 20 0 36 -24 99 -40 104 -8 4 -21 9 -29 12 -10 5 -11
2 -6 -7 5 -8 4 -10 0 -6 -16 14 -14 36 3 30 13 -3 13 -1 -2 11 -24 19 -8 21
17 2 13 -10 14 -15 6 -18 -9 -3 -9 -6 2 -10 10 -4 15 1 16 12 1 10 -13 26 -36
38 -37 21 -39 21 -55 4 -18 -21 -21 -48 -6 -57 6 -4 8 -21 4 -39 -5 -30 -2
-36 35 -65 39 -31 41 -35 35 -72 -7 -43 15 -89 42 -89 9 0 27 -9 41 -20 14
-11 30 -17 35 -14 5 3 15 0 23 -6 8 -7 26 -9 42 -6 25 6 46 -8 173 -109 80
-63 153 -115 163 -115 9 0 25 4 35 9 9 5 63 16 119 25 56 8 127 24 157 35 l56
19 0 -41 c0 -23 -7 -67 -15 -97 -19 -72 -19 -99 2 -122 11 -12 16 -32 14 -53
-3 -43 32 -70 77 -60 22 4 31 2 36 -10 3 -8 38 -31 77 -50 l71 -34 27 -79 c53
-151 131 -262 197 -278 37 -9 133 4 174 24 60 29 75 74 75 232 0 96 -5 158
-18 213 -26 111 -30 91 -6 -28 27 -129 24 -273 -7 -325 -30 -51 -57 -51 -107
2 -68 70 -132 221 -162 380 l-15 79 56 90 c56 90 56 90 78 72 l21 -18 -20 23
c-16 20 -17 26 -6 44 7 11 10 22 8 24 -2 3 -30 -39 -62 -93 -79 -134 -100
-160 -147 -184 -47 -24 -236 -69 -290 -69 -32 0 -39 4 -44 25 -7 27 0 55 14
55 4 0 8 -12 7 -27 0 -27 2 -28 51 -27 28 1 60 7 70 13 16 11 15 11 -11 6 -16
-3 -37 -8 -46 -11 -10 -3 -20 5 -27 20 -13 28 -10 31 36 41 18 4 31 9 29 12
-3 2 -32 -1 -65 -8 -49 -10 -63 -10 -76 0 -19 16 -19 62 0 116 l14 40 -5 -40
c-3 -28 -2 -35 5 -25 7 11 10 3 10 -27 0 -45 -16 -59 -23 -20 -4 21 -4 21 -6
1 -2 -32 22 -47 61 -39 30 7 31 8 11 16 -30 11 -48 96 -48 229 0 144 20 207
86 271 56 54 82 65 50 21 -15 -22 -17 -29 -6 -29 8 0 12 4 10 7 -7 11 35 61
46 55 5 -4 9 0 9 8 0 19 61 37 153 44 92 7 126 -6 128 -46 l1 -26 8 25 c8 24
8 23 9 -8 1 -35 -55 -190 -95 -261 -13 -24 -18 -38 -11 -32 8 6 16 9 19 6 2
-2 12 19 23 48 10 28 23 61 28 72 6 11 12 27 13 35 1 8 9 33 18 55 8 22 15 49
16 60 0 18 2 18 24 -5 13 -14 50 -61 81 -105 l57 -80 -46 -11 c-53 -14 -76
-29 -77 -53 0 -10 -4 -7 -10 8 -5 13 -7 31 -5 40 3 9 -1 27 -9 41 -8 14 -14
20 -15 13 0 -6 -9 -9 -20 -6 -11 3 -20 0 -20 -6 0 -5 6 -8 14 -5 20 8 58 -95
44 -116 -6 -8 5 2 23 22 19 20 47 42 62 48 36 13 80 13 72 0 -3 -5 -17 -10
-30 -10 -35 0 -72 -20 -91 -47 -14 -23 -14 -27 17 -75 18 -28 47 -89 66 -137
18 -47 32 -81 33 -74 0 22 -52 158 -83 215 -30 56 -31 57 -12 78 10 11 36 23
56 26 65 11 64 21 -9 121 -37 50 -84 111 -104 135 l-37 44 20 84 c32 136 35
300 10 455 -35 214 -60 277 -134 342 -53 46 -95 57 -203 49 l-92 -7 -7 32 c-6
26 -3 36 11 47 29 22 137 72 156 72 9 0 49 11 88 26 38 14 74 23 79 19 5 -3
11 -1 13 4 3 9 175 61 202 61 21 0 31 43 16 69 -6 12 -14 20 -18 20 -4 -1 -45
-12 -92 -25z m-539 -124 c29 -29 52 -62 55 -80 4 -16 9 -30 13 -30 3 0 6 -23
7 -50 1 -28 0 -50 -1 -50 -1 0 -27 -5 -59 -11 -60 -11 -120 -4 -110 12 3 6 20
7 36 4 19 -5 28 -3 25 2 -4 6 16 25 43 42 28 18 50 37 50 43 0 7 -10 2 -22 -9
-66 -60 -242 -113 -285 -85 -14 9 -43 75 -42 94 0 7 5 4 10 -7 8 -17 9 -16 3
5 -18 77 -16 87 21 110 55 34 126 59 168 60 32 0 45 -7 88 -50z m253 23 c4
-16 9 -36 13 -47 4 -16 1 -18 -21 -14 -14 3 -27 2 -28 -2 -2 -4 -31 -21 -65
-38 -64 -33 -73 -31 -73 17 0 10 -13 36 -29 58 l-29 41 26 -10 c19 -7 49 -6
102 5 41 8 80 15 86 16 7 0 15 -11 18 -26z m56 -233 c94 -26 150 -114 186
-292 44 -220 42 -400 -7 -582 -20 -74 -18 -29 3 69 29 139 29 302 0 460 -29
160 -37 185 -75 242 -44 66 -95 93 -177 93 -74 0 -373 -52 -439 -76 -93 -35
-150 -115 -151 -212 0 -29 18 -134 39 -235 53 -246 55 -270 37 -425 -38 -321
-65 -410 -118 -385 -30 15 -291 225 -295 238 -5 16 12 35 35 40 16 3 22 -1 22
-13 0 -10 53 -54 136 -112 87 -61 134 -100 132 -110 -2 -8 -9 -15 -16 -15 -6
0 -73 47 -148 105 -104 80 -134 109 -130 123 3 14 2 16 -9 7 -8 -6 -12 -17 -9
-23 9 -19 283 -227 299 -227 9 0 20 10 25 23 14 32 48 242 62 385 13 131 7
182 -53 447 -11 50 -21 126 -22 170 -2 71 1 85 25 126 26 44 76 86 128 108 22
10 300 64 375 74 59 8 111 7 145 -3z m19 -34 c44 -23 97 -89 114 -142 33 -101
61 -286 61 -404 -1 -103 -25 -276 -43 -305 -3 -6 -33 -8 -71 -5 l-65 5 43 14
c40 14 54 33 32 46 -5 3 -10 29 -10 57 0 60 -32 123 -58 113 -9 -3 -13 -3 -9
1 4 4 -1 17 -12 28 -10 12 -26 55 -36 96 -10 41 -37 137 -60 213 l-42 138 31
16 c17 9 42 24 55 34 13 11 32 19 41 19 10 0 22 6 29 13 18 22 -8 37 -66 37
-28 0 -76 5 -105 12 l-53 12 35 7 c65 12 160 9 189 -5z m-319 -24 c0 -13 -53
-39 -117 -57 -101 -28 -112 -65 -19 -65 49 0 155 -15 163 -24 2 -2 21 -91 43
-197 21 -107 39 -183 39 -169 0 14 -15 101 -34 194 -19 93 -33 171 -31 173 2
2 27 8 56 12 36 6 53 5 56 -3 11 -32 93 -306 99 -333 6 -30 4 -33 -17 -33 -13
0 -46 -10 -75 -22 -47 -21 -52 -26 -57 -63 -3 -22 -13 -100 -23 -173 -10 -74
-16 -135 -12 -138 4 -2 23 3 43 11 52 22 67 18 26 -6 -93 -55 -140 -133 -155
-251 l-7 -57 -55 -21 c-50 -18 -202 -50 -243 -50 -16 0 -16 4 -4 50 16 63 51
299 59 405 7 89 -2 160 -45 345 -54 230 -51 305 14 372 44 45 87 65 193 87
108 23 103 23 103 13z m125 -22 c28 -54 12 -89 -32 -73 -14 5 -15 3 -6 -7 8
-9 19 -10 40 -3 23 8 27 14 24 39 -1 16 -7 37 -12 46 -8 15 -2 16 69 11 42 -2
83 -6 90 -9 18 -5 5 -24 -17 -24 -9 0 -33 -12 -52 -26 -50 -37 -92 -53 -152
-55 -71 -3 -257 12 -262 22 -3 4 25 17 62 29 38 12 85 30 105 41 21 11 57 24
80 28 24 5 44 9 45 10 1 1 9 -12 18 -29z m143 -515 c2 -11 14 -28 25 -37 l22
-18 -27 0 c-16 0 -28 -5 -28 -11 0 -5 -4 -8 -9 -5 -5 3 -15 -2 -22 -11 -11
-13 -11 -15 -1 -9 10 6 11 1 7 -21 l-7 -28 35 36 c18 19 39 33 45 31 7 -2 9
-9 5 -15 -4 -6 0 -8 10 -4 10 4 16 2 14 -6 -1 -7 4 -11 11 -9 10 2 11 -4 7
-19 -5 -15 -4 -19 5 -14 15 9 7 -52 -9 -68 -6 -6 -11 -16 -11 -21 0 -6 5 -5
12 2 8 8 15 9 25 1 22 -19 15 -25 -47 -44 -32 -10 -57 -22 -54 -26 3 -5 -1 -7
-8 -4 -7 3 -52 -8 -101 -23 l-87 -28 0 25 c1 22 15 127 36 272 5 30 13 40 47
57 52 27 100 25 105 -3z"/>
</g>
</svg>
